<svg xmlns="http://www.w3.org/2000/svg" viewBox="0 0 12.65 13.88"><defs><style>.cls-1{fill:#3c4650;}</style></defs><title>assign</title><g id="Layer_2" data-name="Layer 2"><g id="Layer_1-2" data-name="Layer 1"><path class="cls-1" d="M9,13.88c-.47,0-1.47-.6-5.55-5.29L0,5.16l0-.23C.25,1.69.92.12,2.12,0c.94-.09,1.67.77,2.5,1.77S6.51,4,7.79,4.06s2.6-1,4-3l.82.58C11,3.94,9.38,5.1,7.77,5.06S4.83,3.58,3.86,2.42C3.26,1.7,2.64.95,2.22,1c-.15,0-.9.27-1.19,3.78L4.18,7.91a47.4,47.4,0,0,0,4.33,4.57c-.3-.78-.9-2-1.28-2.75C6.27,7.8,6.14,7.5,6.3,7.16l.1-.22.26-.07c.46-.11.71.21,2.11,2.21.49.7,1.28,1.82,1.85,2.49A38.86,38.86,0,0,0,9.19,7.27l.94-.35c1.77,4.7,1.71,5.47,1.5,5.85a.63.63,0,0,1-.43.32c-.51.09-1-.35-2.17-1.94.61,1.33.77,1.95.6,2.33a.63.63,0,0,1-.41.36A.78.78,0,0,1,9,13.88Zm.08-1Z"/></g></g></svg>