<?xml version="1.0" encoding="utf-8"?>
<!-- Generator: Adobe Illustrator 21.0.0, SVG Export Plug-In . SVG Version: 6.00 Build 0)  -->
<svg version="1.1" id="Layer_1" xmlns="http://www.w3.org/2000/svg" xmlns:xlink="http://www.w3.org/1999/xlink" x="0px" y="0px"
	 viewBox="0 0 173.7 173.7" style="enable-background:new 0 0 173.7 173.7;" xml:space="preserve">
<style type="text/css">
	.st0{fill:#3C4650;}
</style>
<title>contacts_1</title>
<g id="Layer_2">
	<g id="Layer_1-2">
		<path class="st0" d="M87.1,173.6c-24.8,0-49.1-10.6-65.9-29.9l-2.8-3.3l2.8-3.3c0.5-0.5,11.7-13.4,30.9-22
			c17.9-8,46.2-13.6,79.7,5.1c2.4,1.3,3.3,4.4,1.9,6.8c-1.3,2.4-4.4,3.3-6.8,1.9c-24-13.4-47.8-15-70.7-4.7
			c-11.7,5.2-20.1,12.2-24.3,16.3c21.1,21.5,53.3,28.9,81.7,18.3c39.8-14.7,60.2-59.1,45.5-98.9c-7.1-19.3-21.4-34.6-40.1-43.2
			c-18.7-8.6-39.6-9.4-58.9-2.2c-19.3,7.1-34.6,21.4-43.2,40.1s-9.4,39.6-2.2,58.9c1,2.6-0.4,5.5-3,6.4s-5.5-0.4-6.4-3
			c-8.1-21.8-7.2-45.4,2.5-66.5c9.7-21.1,27-37.2,48.8-45.3c21.8-8.1,45.4-7.2,66.5,2.5c21.1,9.7,37.2,27,45.3,48.8
			c16.7,45-6.4,95.1-51.4,111.8C107.4,171.9,97.2,173.6,87.1,173.6z"/>
		<path class="st0" d="M86.9,92c-17.5,0-31.7-14.2-31.7-31.7s14.2-31.7,31.7-31.7c17.5,0,31.7,14.2,31.7,31.7S104.4,92,86.9,92z
			 M86.9,38.5c-12,0-21.7,9.7-21.7,21.7S74.9,82,86.9,82s21.7-9.7,21.7-21.7S98.8,38.5,86.9,38.5z"/>
	</g>
</g>
</svg>
