<?xml version="1.0" encoding="utf-8"?>
<!-- Generator: Adobe Illustrator 21.0.0, SVG Export Plug-In . SVG Version: 6.00 Build 0)  -->
<svg version="1.1" id="Layer_1" xmlns="http://www.w3.org/2000/svg" xmlns:xlink="http://www.w3.org/1999/xlink" x="0px" y="0px"
	 viewBox="0 0 99.2 99.2" style="enable-background:new 0 0 99.2 99.2;" xml:space="preserve">
<style type="text/css">
	.st0{fill:#3C4650;}
</style>
<g id="Layer_1">
	<g>
		<path class="st0" d="M49.8,98.7c-14,0-27.8-6-37.3-16.9l-1.1-1.3l1.1-1.3c0.3-0.3,26.2-29.8,62.5-9.5c1,0.5,1.3,1.8,0.8,2.7
			c-0.5,1-1.8,1.3-2.7,0.8c-29.6-16.6-51.1,2-56.4,7.3C29,93.6,48.3,98.2,65.2,91.9c23.4-8.6,35.4-34.6,26.7-58
			C87.8,22.6,79.5,13.6,68.5,8.6C57.6,3.5,45.3,3,34,7.2c-23.4,8.6-35.4,34.6-26.7,58c0.4,1-0.1,2.2-1.2,2.6c-1,0.4-2.2-0.1-2.6-1.2
			C-5.9,41.1,7.2,12.8,32.6,3.4C58-5.9,86.4,7.1,95.7,32.6C105.1,58,92,86.3,66.6,95.7C61.1,97.7,55.4,98.7,49.8,98.7z M49.6,51.7
			c-9.6,0-17.4-7.8-17.4-17.4S40,16.9,49.6,16.9S67,24.7,67,34.3S59.2,51.7,49.6,51.7z M49.6,20.9c-7.4,0-13.4,6-13.4,13.4
			s6,13.4,13.4,13.4S63,41.7,63,34.3S57,20.9,49.6,20.9z"/>
	</g>
	<g>
		<path class="st0" d="M49.8,98.7c-14,0-27.8-6-37.3-16.9l-1.1-1.3l1.1-1.3c0.3-0.3,26.2-29.8,62.5-9.5c1,0.5,1.3,1.8,0.8,2.7
			c-0.5,1-1.8,1.3-2.7,0.8c-29.6-16.6-51.1,2-56.4,7.3C29,93.6,48.3,98.2,65.2,91.9c23.4-8.6,35.4-34.6,26.7-58
			C87.8,22.6,79.5,13.6,68.5,8.6C57.6,3.5,45.3,3,34,7.2c-23.4,8.6-35.4,34.6-26.7,58c0.4,1-0.1,2.2-1.2,2.6c-1,0.4-2.2-0.1-2.6-1.2
			C-5.9,41.1,7.2,12.8,32.6,3.4C58-5.9,86.4,7.1,95.7,32.6C105.1,58,92,86.3,66.6,95.7C61.1,97.7,55.4,98.7,49.8,98.7z M49.6,51.7
			c-9.6,0-17.4-7.8-17.4-17.4S40,16.9,49.6,16.9S67,24.7,67,34.3S59.2,51.7,49.6,51.7z M49.6,20.9c-7.4,0-13.4,6-13.4,13.4
			s6,13.4,13.4,13.4S63,41.7,63,34.3S57,20.9,49.6,20.9z"/>
	</g>
</g>
</svg>
