<?xml version="1.0" encoding="utf-8"?>
<!-- Generator: Adobe Illustrator 21.0.0, SVG Export Plug-In . SVG Version: 6.00 Build 0)  -->
<svg version="1.1" id="Layer_1" xmlns="http://www.w3.org/2000/svg" xmlns:xlink="http://www.w3.org/1999/xlink" x="0px" y="0px"
	 viewBox="0 0 99.2 99.2" style="enable-background:new 0 0 99.2 99.2;" xml:space="preserve">
<style type="text/css">
	.st0{fill:#3C4650;}
</style>
<title>loader</title>
<g id="Layer_2">
	<g id="Layer_1-2">
		<path class="st0" d="M97,51.6H71.9c-1.1,0-2-0.9-2-2s0.9-2,2-2H97c1.1,0,2,0.9,2,2S98.1,51.6,97,51.6z"/>
		<path class="st0" d="M27.6,51.6H2.2c-1.1,0-2-0.9-2-2s0.9-2,2-2h25.4c1.1,0,2,0.9,2,2S28.7,51.6,27.6,51.6z"/>
		<path class="st0" d="M33.9,35.9c-0.5,0-1-0.2-1.4-0.6L14.9,17.7c-0.8-0.8-0.8-2,0-2.8c0.8-0.8,2-0.8,2.8,0l17.6,17.6
			c0.8,0.8,0.8,2,0,2.8C34.9,35.7,34.4,35.9,33.9,35.9z"/>
		<path class="st0" d="M83.2,85.2c-0.5,0-1-0.2-1.4-0.6L63.9,66.7c-0.8-0.8-0.8-2,0-2.8c0.8-0.8,2-0.8,2.8,0l17.9,17.9
			c0.8,0.8,0.8,2,0,2.8C84.2,85,83.7,85.2,83.2,85.2z"/>
		<path class="st0" d="M49.6,29.3c-1.1,0-2-0.9-2-2V2.2c0-1.1,0.9-2,2-2s2,0.9,2,2v25.1C51.6,28.4,50.7,29.3,49.6,29.3z"/>
		<path class="st0" d="M49.6,99c-1.1,0-2-0.9-2-2V71.9c0-1.1,0.9-2,2-2s2,0.9,2,2V97C51.6,98.1,50.7,99,49.6,99z"/>
		<path class="st0" d="M65.6,35.9c-0.5,0-1-0.2-1.4-0.6c-0.8-0.8-0.8-2,0-2.8l17.6-17.6c0.8-0.8,2-0.8,2.8,0c0.8,0.8,0.8,2,0,2.8
			L67,35.3C66.6,35.7,66.1,35.9,65.6,35.9z"/>
		<path class="st0" d="M16.3,85.2c-0.5,0-1-0.2-1.4-0.6c-0.8-0.8-0.8-2,0-2.8l17.9-17.9c0.8-0.8,2-0.8,2.8,0c0.8,0.8,0.8,2,0,2.8
			L17.7,84.6C17.3,85,16.8,85.2,16.3,85.2z"/>
	</g>
</g>
</svg>
