<?xml version="1.0" encoding="utf-8"?>
<!-- Generator: Adobe Illustrator 21.0.0, SVG Export Plug-In . SVG Version: 6.00 Build 0)  -->
<svg version="1.1" id="Layer_1" xmlns="http://www.w3.org/2000/svg" xmlns:xlink="http://www.w3.org/1999/xlink" x="0px" y="0px"
	 viewBox="0 0 99.2 99.2" style="enable-background:new 0 0 99.2 99.2;" xml:space="preserve">
<style type="text/css">
	.st0{fill:#3C4650;}
</style>
<g id="Layer_2">
	<g id="Layer_1-2">
		<path class="st0" d="M19,31.1L2.4,47.8c-0.4,0.4-0.6,0.9-0.6,1.4s0.2,1.1,0.6,1.4L19,67.2c0.7,0.8,2,0.8,2.8,0.1c0,0,0,0,0.1-0.1
			c0.4-0.4,0.6-0.9,0.6-1.4s-0.2-1.1-0.6-1.4L8.7,51.2h65.1c1.1,0,2-0.9,2-2s-0.9-2-2-2H8.7L21.9,34c0.8-0.7,0.8-2,0.1-2.8
			c0,0,0,0-0.1-0.1C21.2,30.3,19.9,30.2,19,31.1C19.1,31,19.1,31,19,31.1z"/>
		<path class="st0" d="M87.3,0.1h-45c-5.6,0-10.2,4.6-10.2,10.2V27h4.1V10.3c0-3.4,2.7-6.1,6.1-6.1h45c3.4,0,6.1,2.7,6.1,6.1V89
			c0,3.4-2.7,6.1-6.1,6.1h-45c-3.4,0-6.1-2.7-6.1-6.1V71.3h-4.1V89c0,5.6,4.6,10.2,10.2,10.2h45c5.6,0,10.2-4.6,10.2-10.2V10.3
			C97.5,4.7,93,0.1,87.3,0.1z"/>
	</g>
</g>
</svg>
