<?xml version="1.0" encoding="utf-8"?>
<!-- Generator: Adobe Illustrator 21.0.0, SVG Export Plug-In . SVG Version: 6.00 Build 0)  -->
<svg version="1.1" id="Layer_1" xmlns="http://www.w3.org/2000/svg" xmlns:xlink="http://www.w3.org/1999/xlink" x="0px" y="0px"
	 viewBox="0 0 99.2 99.2" style="enable-background:new 0 0 99.2 99.2;" xml:space="preserve">
<style type="text/css">
	.st0{fill:#3C4650;}
</style>
<title>messages_1</title>
<g id="Layer_2">
	<g>
		<g id="Layer_1-2_7_">
			<path class="st0" d="M88.2,98.3c-2.2,0-6-2.2-15.4-9.2c-0.6-0.3-1.4-0.4-2.1-0.3C61.8,90.5,50,86.3,42.6,79
				c-5.6-5.5-8.1-12.2-7-18.7l3.9,0.7c-1.1,6.7,2.6,12,5.9,15.2C52,82.7,62.3,86.4,69.9,85c1.7-0.4,3.4-0.1,4.9,0.8l0.2,0.1
				c6.6,4.9,10,7,11.7,7.9c-0.2-0.5-0.3-1.1-0.5-1.6c-1.4-4.3-3.4-10.8,1.4-14.3c8.3-7.7,8.1-15.2,6.5-20.2
				c-2.8-8.5-11.9-15.8-21.2-17l0.5-4c10.8,1.3,21.3,9.8,24.5,19.7c2.8,8.6,0.1,17.3-7.7,24.4L90,80.9c-2.4,1.6-1.4,5.5,0,9.9
				c1,3.1,1.8,5.5-0.1,6.9C89.4,98.1,88.8,98.3,88.2,98.3z"/>
			<path class="st0" d="M12,74.5c-0.9,0-1.6-0.4-2-0.8s-1.3-1.6-0.3-3.8c4.6-14.4,3.4-15.3,2.5-16l1.1-1.7l-1.2,1.6
				C4.9,48.6,1.5,41.5,0.7,36.7C-0.6,29.4,1,22.3,5.3,16.4C11,8.5,21.3,2.8,32.9,1.1c17.3-1.7,37.9,6.5,42.2,25.2v0.1
				c1.4,7.8-0.1,14.9-4.5,21c-7,9.7-18.7,13.7-24,14.5c-2.5,0.3-5,0.5-7.5,0.5c-5.3,0-6.5,0-8.3,1c-0.6,0.3-1.3,0.9-2.3,1.7
				c-2.4,2-6,4.9-14.2,8.8C13.4,74.3,12.7,74.5,12,74.5z M14.6,50.8c3,2.2,3.9,4.7-0.6,18.8c6.8-3.3,9.9-5.9,12-7.6
				c1.1-0.9,2-1.6,3-2.1c2.8-1.4,4.8-1.4,10.1-1.4c2.3,0,4.7-0.2,7-0.5c5.4-0.8,15.5-4.9,21.3-12.9c3.7-5.2,5-11.2,3.9-17.9
				c-3.8-16.4-22.4-23.6-37.8-22C23,6.6,13.6,11.7,8.5,18.7c-3.7,5.1-5,11-3.9,17.3C5.3,39.9,8.3,46.1,14.6,50.8L14.6,50.8l-1.2,1.6
				L14.6,50.8z"/>
		</g>
	</g>
	<g>
		<g id="Layer_1-2_6_">
			<path class="st0" d="M88.2,98.3c-2.2,0-6-2.2-15.4-9.2c-0.6-0.3-1.4-0.4-2.1-0.3C61.8,90.5,50,86.3,42.6,79
				c-5.6-5.5-8.1-12.2-7-18.7l3.9,0.7c-1.1,6.7,2.6,12,5.9,15.2C52,82.7,62.3,86.4,69.9,85c1.7-0.4,3.4-0.1,4.9,0.8l0.2,0.1
				c6.6,4.9,10,7,11.7,7.9c-0.2-0.5-0.3-1.1-0.5-1.6c-1.4-4.3-3.4-10.8,1.4-14.3c8.3-7.7,8.1-15.2,6.5-20.2
				c-2.8-8.5-11.9-15.8-21.2-17l0.5-4c10.8,1.3,21.3,9.8,24.5,19.7c2.8,8.6,0.1,17.3-7.7,24.4L90,80.9c-2.4,1.6-1.4,5.5,0,9.9
				c1,3.1,1.8,5.5-0.1,6.9C89.4,98.1,88.8,98.3,88.2,98.3z"/>
			<path class="st0" d="M12,74.5c-0.9,0-1.6-0.4-2-0.8s-1.3-1.6-0.3-3.8c4.6-14.4,3.4-15.3,2.5-16l1.1-1.7l-1.2,1.6
				C4.9,48.6,1.5,41.5,0.7,36.7C-0.6,29.4,1,22.3,5.3,16.4C11,8.5,21.3,2.8,32.9,1.1c17.3-1.7,37.9,6.5,42.2,25.2v0.1
				c1.4,7.8-0.1,14.9-4.5,21c-7,9.7-18.7,13.7-24,14.5c-2.5,0.3-5,0.5-7.5,0.5c-5.3,0-6.5,0-8.3,1c-0.6,0.3-1.3,0.9-2.3,1.7
				c-2.4,2-6,4.9-14.2,8.8C13.4,74.3,12.7,74.5,12,74.5z M14.6,50.8c3,2.2,3.9,4.7-0.6,18.8c6.8-3.3,9.9-5.9,12-7.6
				c1.1-0.9,2-1.6,3-2.1c2.8-1.4,4.8-1.4,10.1-1.4c2.3,0,4.7-0.2,7-0.5c5.4-0.8,15.5-4.9,21.3-12.9c3.7-5.2,5-11.2,3.9-17.9
				c-3.8-16.4-22.4-23.6-37.8-22C23,6.6,13.6,11.7,8.5,18.7c-3.7,5.1-5,11-3.9,17.3C5.3,39.9,8.3,46.1,14.6,50.8L14.6,50.8l-1.2,1.6
				L14.6,50.8z"/>
		</g>
	</g>
</g>
</svg>
