<?xml version="1.0" encoding="utf-8"?>
<!-- Generator: Adobe Illustrator 21.0.0, SVG Export Plug-In . SVG Version: 6.00 Build 0)  -->
<svg version="1.1" id="Layer_1" xmlns="http://www.w3.org/2000/svg" xmlns:xlink="http://www.w3.org/1999/xlink" x="0px" y="0px"
	 viewBox="0 0 88 86.9" style="enable-background:new 0 0 88 86.9;" xml:space="preserve">
<style type="text/css">
	.st0{fill:#3C4650;}
</style>
<title>chat_1</title>
<g id="Layer_2">
	<g id="Layer_1-2">
		<path class="st0" d="M78.7,87c-1.7,0-5-1.8-13.7-8.2c-0.6-0.3-1.4-0.4-2.1-0.3c-7.9,1.4-18.4-2.3-25-8.8c-5-4.9-7.2-10.8-6.2-16.6
			l3,0.5c-1,6.1,2.3,11,5.3,13.9c6,5.9,15.3,9.3,22.3,8c1.4-0.3,2.9-0.1,4.2,0.7l0.2,0.1c6.6,4.8,9.7,6.8,11.1,7.4
			c-0.2-0.6-0.4-1.5-0.6-2.1c-1.2-3.8-3-9.6,1.2-12.6c7.6-7,7.4-13.9,5.9-18.5c-2.5-7.8-10.8-14.4-19.3-15.4l0.4-3
			c9.6,1.1,19,8.7,21.8,17.5c2.5,7.6,0,15.3-6.8,21.7l-0.2,0.1c-2.3,1.6-1.4,5.1-0.1,9.3c0.8,2.7,1.5,4.8,0,5.9
			C79.6,86.8,79.2,87,78.7,87z"/>
		<path class="st0" d="M10.3,65.5c-0.7,0-1.2-0.3-1.6-0.6c-0.4-0.4-1-1.4-0.2-3.1c4.2-13.1,3.1-14,2.1-14.7l0.8-1.2l-0.9,1.2
			c-6.4-4.7-9.5-11-10.1-15.3c-1.2-6.5,0.2-12.7,4-18c5.1-7,14.3-12.1,24.7-13.6C44.5-1.3,62.9,6,66.7,22.6c1.3,7-0.1,13.3-4,18.7
			C56.5,50,46,53.5,41.3,54.2c-2.2,0.3-4.5,0.4-6.7,0.5c-4.6,0-5.8,0-7.7,0.9c-0.6,0.3-1.2,0.8-2,1.5c-2.1,1.7-5.4,4.4-12.7,7.9
			C11.5,65.4,10.8,65.5,10.3,65.5z M12.4,44.7c2.6,1.9,3.3,4.2-0.8,17.2c6.6-3.2,9.5-5.6,11.5-7.2c1-0.8,1.7-1.4,2.6-1.8
			c2.5-1.2,4.2-1.2,9-1.2c2.1,0,4.2-0.2,6.3-0.4c4.9-0.7,14.1-4.4,19.3-11.7c3.4-4.8,4.6-10.3,3.5-16.4C60.3,8.4,43.5,1.8,29.5,3.2
			c-9.5,1.3-18,5.9-22.6,12.3c-3.4,4.7-4.6,10-3.5,15.7C3.9,34.9,6.6,40.5,12.4,44.7L12.4,44.7l-0.9,1.2L12.4,44.7z"/>
	</g>
</g>
</svg>
