<?xml version="1.0" encoding="utf-8"?>
<!-- Generator: Adobe Illustrator 21.0.0, SVG Export Plug-In . SVG Version: 6.00 Build 0)  -->
<svg version="1.1" id="Layer_1" xmlns="http://www.w3.org/2000/svg" xmlns:xlink="http://www.w3.org/1999/xlink" x="0px" y="0px"
	 viewBox="0 0 99.2 99.2" style="enable-background:new 0 0 99.2 99.2;" xml:space="preserve">
<style type="text/css">
	.st0{fill:#3C4650;}
</style>
<title>search_1</title>
<g id="Layer_2">
	<g id="Layer_2-2">
		<path class="st0" d="M38.9,77.7c-21.3,0-38.7-17.4-38.7-38.7c0-21.3,17.4-38.7,38.7-38.7c21.3,0,38.7,17.4,38.7,38.7
			C77.7,60.3,60.3,77.7,38.9,77.7z M38.9,3.2c-19.7,0-35.7,16-35.7,35.7s16,35.7,35.7,35.7s35.7-16,35.7-35.7S58.6,3.2,38.9,3.2z"/>
		<path class="st0" d="M96.6,98.8c-0.6,0-1.2-0.2-1.6-0.7L64.8,68c-0.9-0.9-0.9-2.3,0-3.2c0.9-0.9,2.3-0.9,3.2,0L98.2,95
			c0.9,0.9,0.9,2.3,0,3.2C97.7,98.6,97.1,98.8,96.6,98.8z"/>
	</g>
</g>
</svg>
